<svg xmlns="http://www.w3.org/2000/svg" viewBox="0 0 180 180">
<!--!Font Awesome Free 6.5.2 by @fontawesome - https://fontawesome.com License - https://fontawesome.com/license/free Copyright 2024 Fonticons, Inc.-->
<rect x="0" y="0" width="180" height="180" style="fill:none;stroke-width:0"/>
<path d="m 73.06715,111.16665 v 0 c 0,-4.28625 0.34396,-2.30188 -22.51604,-48.02188 -4.68313,-9.33978 -18.04459,-9.36624 -22.72771,0 C 4.77819,109.26165 5.33382,107.01269 5.33382,111.16665 v 0 c 0,11.69458 15.16062,21.16667 33.86666,21.16667 18.70604,0 33.86667,-9.47209 33.86667,-21.16667 z m -33.86667,-42.33334 19.05,38.10001 h -38.1 z m 135.46667,42.33334 c 0,-4.28625 0.34396,-2.30188 -22.51604,-48.02188 -4.68312,-9.33978 -18.04458,-9.36624 -22.72771,0 -23.04521,46.11688 -22.48958,43.86792 -22.48958,48.02188 v 0 c 0,11.69458 15.16062,21.16667 33.86667,21.16667 18.70604,0 33.86666,-9.47209 33.86666,-21.16667 z m -52.91666,-4.23333 19.05,-38.10001 19.05,38.10001 z m 23.28333,33.86666 H 98.46715 V 62.82727 c 6.21771,-2.72521 10.90084,-8.33436 12.27667,-15.16061 h 34.29 c 2.32833,0 4.23333,-1.905 4.23333,-4.23334 v -8.46666 c 0,-2.32834 -1.905,-4.23334 -4.23333,-4.23334 h -38.20583 c -3.86292,-5.10647 -9.92188,-8.46667 -16.82751,-8.46667 -6.90562,0 -12.96458,3.3602 -16.8275,8.46667 H 34.96715 c -2.32833,0 -4.23333,1.905 -4.23333,4.23334 v 8.46666 c 0,2.32834 1.905,4.23334 4.23333,4.23334 h 34.29 c 1.37583,6.82625 6.05896,12.43541 12.27667,15.16061 v 77.97271 H 34.96715 c -2.32833,0 -4.23333,1.905 -4.23333,4.23334 v 8.46666 c 0,2.32834 1.905,4.23334 4.23333,4.23334 h 110.06667 c 2.32833,0 4.23333,-1.905 4.23333,-4.23334 v -8.46666 c 0,-2.32834 -1.905,-4.23334 -4.23333,-4.23334 z"/>
</svg>
