<svg xmlns="http://www.w3.org/2000/svg" viewBox="0 0 180 180">
<!--!Font Awesome Free 6.5.2 by @fontawesome - https://fontawesome.com License - https://fontawesome.com/license/free Copyright 2024 Fonticons, Inc.-->
<rect x="0" y="0" width="180" height="180" style="fill:none;stroke-width:0"/>
<path d="m 157.73995,22.27328 c -13.70542,0.9525 -109.960828,10.10708 -116.681248,76.09417 -0.82021,7.06437 -1.27,14.12875 -1.5875,21.21958 l 47.33396,-47.28104 c 1.66687,-1.66688 4.33916,-1.66688 6.00604,0 1.66687,1.66687 1.66687,4.33917 0,5.97958 l -68.68583,68.60646 c -2.48709,2.48708 -2.48709,6.50875 0,8.96937 2.48708,2.48709 6.50875,2.48709 8.99583,0 l 15.10771,-15.1077 c 11.13896,-0.0265 22.27791,-0.66146 33.3375,-1.95792 14.15521,-1.42875 25.664578,-7.01146 35.083748,-14.94896 H 89.927242 L 128.76807,110.9087 c 2.98979,-3.94229 5.66208,-8.12271 8.06979,-12.46188 h -21.4577 L 143.55828,84.37099 C 154.64432,57.43641 157.2637,29.23182 157.73995,22.27328 Z"/>
</svg>
