<svg xmlns="http://www.w3.org/2000/svg" xmlns:xlink="http://www.w3.org/1999/xlink" viewBox="0 0 183.2 220.77">
 <defs>
  <filter id="r" width="1.03" height="1.11" x="-.02" y="-.04" color-interpolation-filters="sRGB">
   <feGaussianBlur stdDeviation=".48"/>
  </filter>
  <filter id="w" width="1.06" height="1.06" x="-.03" y="-.03" color-interpolation-filters="sRGB">
   <feGaussianBlur stdDeviation=".14"/>
  </filter>
  <filter id="o" width="1.04" height="1.03" x="-.02" y="-.02" color-interpolation-filters="sRGB">
   <feGaussianBlur stdDeviation=".22"/>
  </filter>
  <filter id="l" width="1.01" height="1.03" x="0" y="-.02" color-interpolation-filters="sRGB">
   <feGaussianBlur stdDeviation=".12"/>
  </filter>
  <filter id="m" width="1" height="1" x="0" y="0" color-interpolation-filters="sRGB">
   <feGaussianBlur stdDeviation=".05"/>
  </filter>
  <filter id="t" width="1.02" height="1.04" x="-.01" y="-.02" color-interpolation-filters="sRGB">
   <feGaussianBlur stdDeviation=".16"/>
  </filter>
  <filter id="v" width="1.03" height="1.04" x="-.01" y="-.02" color-interpolation-filters="sRGB">
   <feGaussianBlur stdDeviation=".12"/>
  </filter>
  <filter id="p" width="1.03" height="1.04" x="-.02" y="-.02" color-interpolation-filters="sRGB">
   <feGaussianBlur stdDeviation=".1"/>
  </filter>
  <filter id="y" width="1.03" height="1.01" x="-.02" y="0" color-interpolation-filters="sRGB">
   <feGaussianBlur stdDeviation=".05"/>
  </filter>
  <filter id="A" width="1.02" height="1.03" x="-.01" y="-.01" color-interpolation-filters="sRGB">
   <feGaussianBlur stdDeviation=".14"/>
  </filter>
  <filter id="C" width="1.05" height="1.01" x="-.02" y="0" color-interpolation-filters="sRGB">
   <feGaussianBlur stdDeviation=".02"/>
  </filter>
  <filter id="D" width="1.08" height="1.01" x="-.04" y="-.01" color-interpolation-filters="sRGB">
   <feGaussianBlur stdDeviation=".02"/>
  </filter>
  <filter id="k" width="1" height="1.01" x="0" y="0" color-interpolation-filters="sRGB">
   <feGaussianBlur stdDeviation=".5"/>
  </filter>
  <filter id="H" width="1.01" height="1.07" x="-.01" y="-.04" color-interpolation-filters="sRGB">
   <feGaussianBlur stdDeviation=".09"/>
  </filter>
  <filter id="J" width="1.01" height="1.09" x="0" y="-.05" color-interpolation-filters="sRGB">
   <feGaussianBlur stdDeviation=".09"/>
  </filter>
  <filter id="K" width="1.03" height="1.17" x="-.01" y="-.08" color-interpolation-filters="sRGB">
   <feGaussianBlur stdDeviation=".1"/>
  </filter>
  <filter id="F" width="1.01" height="1.08" x="0" y="-.04" color-interpolation-filters="sRGB">
   <feGaussianBlur stdDeviation=".1"/>
  </filter>
  <filter id="q" width="1.06" height="1.05" x="-.03" y="-.02" color-interpolation-filters="sRGB">
   <feGaussianBlur stdDeviation=".38"/>
  </filter>
  <filter id="E" width="1.07" height="1.01" x="-.04" y="-.01" color-interpolation-filters="sRGB">
   <feGaussianBlur stdDeviation=".02"/>
  </filter>
  <linearGradient id="f">
   <stop offset="0" stop-color="#fff"/>
   <stop offset="1" stop-color="#a0a0a0"/>
  </linearGradient>
  <linearGradient id="e">
   <stop offset="0" stop-color="#606060"/>
   <stop offset="1"/>
  </linearGradient>
  <linearGradient id="d">
   <stop offset="0" stop-color="#202020"/>
   <stop offset="1" stop-color="#505050"/>
  </linearGradient>
  <linearGradient id="b">
   <stop offset="0" stop-color="#f800db"/>
   <stop offset="1" stop-color="#5924b4"/>
  </linearGradient>
  <linearGradient id="c">
   <stop offset="0" stop-color="#fff"/>
   <stop offset="1" stop-color="#505050"/>
  </linearGradient>
  <linearGradient id="a">
   <stop offset="0" stop-color="#f0f000"/>
   <stop offset="1" stop-color="#e9be03"/>
  </linearGradient>
  <linearGradient xlink:href="#a" id="u" x1="-201.95" x2="-195.65" y1="239.72" y2="270.59" gradientTransform="translate(328.71 -714.9)" gradientUnits="userSpaceOnUse"/>
  <linearGradient xlink:href="#a" id="s" x1="-283.58" x2="-281.14" y1="220.79" y2="253.44" gradientTransform="translate(328.71 -714.9)" gradientUnits="userSpaceOnUse"/>
  <linearGradient xlink:href="#a" id="n" x1="37.07" x2="58.29" y1="477.34" y2="512.23" gradientTransform="translate(85.48 -843.23)" gradientUnits="userSpaceOnUse"/>
  <linearGradient xlink:href="#a" id="z" x1="374.65" x2="376.09" y1="-133.07" y2="-90.73" gradientUnits="userSpaceOnUse"/>
  <linearGradient xlink:href="#a" id="B" x1="433.39" x2="434.13" y1="-65.03" y2="-38.68" gradientTransform="matrix(.08333 .00208 -.01101 .44186 -838.33 52.59)" gradientUnits="userSpaceOnUse"/>
  <linearGradient xlink:href="#a" id="G" x1="-283.58" x2="-281.14" y1="220.79" y2="253.44" gradientTransform="matrix(.8302 -.05205 .84581 .1969 59.13 -570.27)" gradientUnits="userSpaceOnUse"/>
  <linearGradient xlink:href="#a" id="I" x1="-201.95" x2="-195.65" y1="239.72" y2="270.59" gradientTransform="matrix(.8302 -.05205 .84581 .1969 59.13 -570.27)" gradientUnits="userSpaceOnUse"/>
  <radialGradient xlink:href="#b" id="j" cx="-52.35" cy="400.33" r="90.69" fx="-52.35" fy="400.33" gradientTransform="matrix(1.70945 -.01408 .0109 1.3228 408.28 -1018.18)" gradientUnits="userSpaceOnUse" spreadMethod="pad"/>
  <radialGradient xlink:href="#c" id="i" cx="412.36" cy="644.1" r="35.67" fx="412.35" fy="644.17" gradientTransform="matrix(2.20812 -.06514 .0564 1.91173 -843.96 -1620)" gradientUnits="userSpaceOnUse"/>
  <radialGradient xlink:href="#d" id="g" cx="-300.32" cy="-279.1" r="90.69" fx="-300.32" fy="-279.1" gradientTransform="matrix(.64415 -.0113 .0109 .62189 463.48 -333.34)" gradientUnits="userSpaceOnUse"/>
  <radialGradient xlink:href="#e" id="h" cx="73.17" cy="-403.31" r="73.96" fx="73.17" fy="-403.31" gradientTransform="matrix(1 0 0 1.0138 0 5.57)" gradientUnits="userSpaceOnUse"/>
  <radialGradient xlink:href="#f" id="x" cx="86.94" cy="-468.85" r="8.44" fx="86.94" fy="-468.85" gradientTransform="matrix(1.42832 -.80936 .53765 .94882 215.33 46.8)" gradientUnits="userSpaceOnUse"/>
 </defs>
 <g fill-rule="evenodd" color="#000">
  <path fill="url(#g)" d="m360.1-663.11-136.5 4.85-.21 181.09 26.51 34.83 154.87-7.47-44.46-18.83-.2-174.63 44.44-1.02z" style="-inkscape-stroke:none" transform="translate(-222.26 663.11)"/>
  <path fill="gray" fill-opacity=".5" d="m404.77-449.8-44.46-18.84-.2-174.63 44.44-1.02z" style="-inkscape-stroke:none" transform="translate(-222.26 663.11)"/>
 </g>
 <g color="#000">
  <path fill="url(#h)" fill-rule="evenodd" d="M7.7-435.03c26.63-52.58 98.4-61.5 132.12-2.91 20.97 36.41-4.37 100.54-61 108.97-48.39 7.2-100.38-48.28-71.12-106.06z" transform="translate(21.9 519.63)"/>
  <path fill="url(#i)" fill-rule="evenodd" d="M59.06-415.17c12.84-25.36 47.45-29.65 63.72-1.4 10.1 17.56-2.11 48.49-29.42 52.55-23.34 3.47-48.41-23.28-34.3-51.15z" transform="translate(21.9 519.63)"/>
  <path fill="#282828" d="m99.25-417.06-19.44 1.45 3.06 35.72 4.98-.43-1.27-14.9 12.2-1.22 2.65 2.38.83 11.82 4.98-.35-.96-13.84-3.15-2.83 2.68-3.1-.77-9.98zm-1.61 5.13 2.58 2.11.45 5.76-2.28 2.63-12.24 1.24-.93-10.81z" style="-inkscape-stroke:none" transform="translate(21.9 519.63)"/>
 </g>
 <g fill-rule="evenodd" color="#000">
  <path fill="#fff" fill-opacity=".1" d="m269.26-391.46-26.51-34.83.22-181.08 29.33 17.44z" style="-inkscape-stroke:none" transform="translate(-241.62 612.23)"/>
  <path fill="url(#j)" d="m269.26-391.46-26.51-34.83.22-181.08 136.48-4.86 44.46 18.82-.15 46.86c-10.81 14.93-39.96 21.87-55.8 6.95-7.8 3.6-20.06 10.7-34.53-7.57-13.85-6.37-29.74-1.64-34.86 3.95-10.23 11.17-12.18 13.42-27.3 33.5.06 5.78-10.85 19.45-15.15-20.17-3.96.26-5.8-1.2-7.44-8.05-3.08 15.78-2.47 50.04-2.47 50.04s10.58 52.89 23.74 68.6c53.61-.17 80.04-10.2 114.2-29.9-.03-4.15.46-12 .46-12l11.71 6.53c7.02-2.73 16.98-5.83 27.58-5.1l.23 60.84z" style="-inkscape-stroke:none" transform="translate(-241.62 612.23)"/>
  <path fill-opacity=".08" d="m272.3-589.93-29.33-17.44 136.48-4.86 44.46 18.82z" style="-inkscape-stroke:none" transform="translate(-241.62 612.23)"/>
  <path fill-opacity=".16" d="m269.26-391.46-26.51-34.83.22-181.08 29.33 17.44-1.04 80.21c.07 5.78-10.84 19.45-15.14-20.17-3.96.26-5.8-1.2-7.44-8.05-3.08 15.78-2.47 50.04-2.47 50.04s10.58 52.89 23.74 68.6z" style="-inkscape-stroke:none" transform="translate(-241.62 612.23)"/>
  <path fill="#fff" fill-opacity=".8" d="M-36.78-351.9c-.2 3.3-.5 3.69-4.08 4.2 3.56.43 3.7 1.64 4.08 5.63.3-4.06.47-5.24 3.6-5.62-3.15-.13-3.46-.85-3.6-4.2zm-50.92 3.24c-.2 3.3-.5 3.69-4.08 4.2 3.56.43 3.7 1.64 4.08 5.63.3-4.06.47-5.24 3.6-5.62-3.15-.13-3.46-.85-3.6-4.21zm-13.26 2.7c-.32 4.23-.87 4.7-7.62 5.05 6.74.87 7 2.44 7.8 7.61.5-5.2.8-6.7 6.71-6.91-5.95-.45-6.55-1.4-6.9-5.74zm21.6 24.22c-.14 2.09-.38 2.33-3.37 2.55 2.98.38 3.1 1.15 3.44 3.7.22-2.57.37-3.32 2.98-3.47-2.63-.17-2.9-.64-3.04-2.78zm41.6 43.67c-.16 2.59-.4 2.9-3.24 3.3 2.84.33 2.94 1.28 3.25 4.4.23-3.17.38-4.1 2.87-4.4-2.51-.1-2.76-.67-2.88-3.3zm-59.75 14.5c-.16 2.57-.4 2.88-3.25 3.28 2.84.34 2.95 1.29 3.25 4.41.24-3.18.38-4.1 2.87-4.4-2.5-.1-2.75-.67-2.87-3.3zm3.26-17.5c-.16 2.59-.4 2.9-3.24 3.3 2.84.33 2.94 1.28 3.25 4.4.23-3.17.37-4.1 2.87-4.4-2.51-.1-2.76-.66-2.88-3.3zm15.78-2.36c-.2 3.3-.5 3.69-4.08 4.2 3.57.43 3.7 1.64 4.08 5.63.3-4.06.48-5.24 3.61-5.62-3.15-.13-3.46-.85-3.6-4.21zm-7.85 8.03c-.32 4.22-.87 4.7-7.62 5.05 6.74.86 7.01 2.43 7.81 7.6.49-5.2.8-6.7 6.7-6.9-5.95-.45-6.55-1.41-6.89-5.75zm45.06 68.62c-.16 2.83-.36 3.17-2.84 3.7 2.46.28 2.54 1.3 2.79 4.71.23-3.48.36-4.5 2.52-4.9-2.18-.03-2.39-.64-2.47-3.5zm-57.07 64.8c-.12 2.22-.26 2.49-1.96 2.94 1.69.18 1.74.99 1.9 3.65.17-2.73.94-3.72 2.43-4.07-1.5.01-2.32-.27-2.37-2.52zm-7.62-4.96c-.16 2.82-.37 3.17-2.85 3.7 2.46.27 2.55 1.3 2.8 4.71.22-3.48.35-4.5 2.52-4.9-2.18-.03-2.4-.64-2.47-3.51zm17.7-17.63c-.23 3.74-.57 4.18-4.77 4.75 4.18.5 4.33 1.87 4.79 6.4.34-4.6.55-5.94 4.22-6.36-3.7-.16-4.06-.98-4.23-4.8zm39.74 3.16c-.16 2.83-.36 3.17-2.84 3.7 2.46.28 2.54 1.31 2.79 4.71.23-3.48.36-4.5 2.52-4.9-2.18-.02-2.39-.64-2.47-3.5zm2.77-35.85c-.32 4.23-.87 4.7-7.62 5.05 6.74.86 7 2.43 7.8 7.6.5-5.2.8-6.7 6.71-6.9-5.95-.45-6.55-1.41-6.9-5.75zm3.82 28.83c-.24 3.74-.58 4.19-4.77 4.76 4.17.5 4.32 1.87 4.78 6.4.34-4.6.55-5.94 4.22-6.36-3.7-.16-4.06-.98-4.23-4.8zm-98.69-183.4c.28 2.2.77 2.53 6.82 3.78-6.04-.63-6.29.13-7.02 2.62-.42-2.71-.7-3.53-6-4.57 5.35.72 5.88.33 6.2-1.82zm-157.3-23.44c.16 1.3.45 1.5 4.06 2.25-3.6-.38-3.75.07-4.19 1.56-.25-1.62-.41-2.1-3.57-2.73 3.18.43 3.5.2 3.7-1.08zm25.46 3.92c.16 1.31.45 1.5 4.06 2.25-3.6-.38-3.75.07-4.19 1.56-.25-1.62-.41-2.1-3.57-2.72 3.18.42 3.5.19 3.7-1.09zm-96.9-12.71c.25 2 .7 2.3 6.2 3.43-5.5-.58-5.72.1-6.38 2.38-.39-2.47-.64-3.2-5.45-4.16 4.85.66 5.34.3 5.63-1.65zm-103.57-12.84c.47 3.76 1.31 4.32 11.66 6.46-10.34-1.08-10.76.2-12.02 4.48-.71-4.65-1.19-6.04-10.25-7.82 9.14 1.23 10.06.55 10.61-3.12zm153.17 22.2c.47 3.76 1.31 4.32 11.67 6.45-10.35-1.08-10.76.21-12.02 4.49-.72-4.65-1.2-6.04-10.25-7.83 9.13 1.23 10.06.56 10.6-3.11zm192.56 29.32c.16 1.31.45 1.51 4.06 2.26-3.6-.38-3.75.07-4.19 1.56-.25-1.62-.41-2.1-3.57-2.73 3.19.43 3.5.2 3.7-1.09zm-311.92-45.69c.18 1.46.5 1.68 4.52 2.5-4.01-.42-4.17.08-4.66 1.74-.28-1.8-.46-2.34-3.97-3.03 3.54.47 3.9.21 4.1-1.2zm-91.92-10.83c.64 5.16 1.8 5.93 16 8.86-14.2-1.48-14.77.29-16.5 6.15-.98-6.38-1.63-8.28-14.06-10.74 12.54 1.7 13.8.77 14.56-4.27zm226.72 35.13c.25 2 .7 2.3 6.2 3.43-5.5-.58-5.72.1-6.38 2.38-.39-2.47-.64-3.21-5.45-4.16 4.85.65 5.34.3 5.63-1.65zm-115.6-16.78c.47 3.76 1.32 4.32 11.67 6.45-10.35-1.08-10.76.21-12.02 4.49-.72-4.65-1.2-6.04-10.25-7.83 9.14 1.23 10.06.56 10.6-3.11zm-29.61-2.87c.3 2.47.86 2.84 7.65 4.24-6.78-.71-7.06.14-7.88 2.94-.47-3.05-.79-3.96-6.73-5.13 6 .8 6.6.36 6.96-2.05zm-100.4-8.2c.18 1.46.5 1.68 4.52 2.5-4.01-.41-4.17.09-4.66 1.75-.28-1.8-.46-2.34-3.98-3.04 3.55.48 3.9.22 4.12-1.2zm8.2 14.36c.3 2.46.85 2.83 7.64 4.23-6.78-.7-7.05.14-7.88 2.94-.47-3.05-.78-3.96-6.73-5.13 6 .8 6.6.37 6.96-2.04zm421.65 71.76c.27 2.2.77 2.53 6.82 3.78-6.05-.63-6.3.12-7.03 2.62-.42-2.72-.7-3.53-6-4.58 5.35.72 5.89.33 6.2-1.82zm-13.33 11.27c.18 1.44.5 1.66 4.47 2.48-3.96-.42-4.13.08-4.6 1.72-.28-1.78-.47-2.32-3.94-3 3.5.47 3.86.21 4.07-1.2zm5.7 6.67c.48 3.76 1.32 4.32 11.67 6.46-10.34-1.08-10.76.2-12.02 4.48-.71-4.64-1.19-6.04-10.25-7.82 9.14 1.23 10.06.56 10.6-3.12zm-421.58 26.64c.37 3 1.05 3.46 9.35 5.17-8.3-.86-8.63.17-9.64 3.6-.57-3.73-.96-4.84-8.22-6.28 7.33.99 8.07.45 8.5-2.5zm18.72 10.54c.18 1.45.5 1.66 4.47 2.48-3.96-.41-4.12.08-4.6 1.72-.28-1.78-.46-2.32-3.94-3 3.5.47 3.86.21 4.07-1.2zm-20.39-1.27c.38 3.01 1.05 3.46 9.36 5.17-8.3-.86-8.63.17-9.64 3.6-.58-3.73-.96-4.84-8.23-6.28 7.33 1 8.07.45 8.51-2.5zm130.7 28.33c.28 2.2.77 2.53 6.83 3.77-6.05-.63-6.3.13-7.03 2.62-.42-2.71-.7-3.53-6-4.57 5.35.72 5.89.33 6.2-1.82zm-23.33 1.9c.18 1.44.5 1.65 4.48 2.47-3.97-.41-4.13.08-4.61 1.72-.28-1.78-.46-2.32-3.94-3 3.5.47 3.86.21 4.07-1.2zm56.39 8.75c.7 5.67 1.97 6.52 17.6 9.74-15.61-1.63-16.24.32-18.14 6.77-1.08-7.01-1.8-9.11-15.47-11.8 13.79 1.85 15.18.83 16-4.7zm34.16 11.1c.18 1.44.5 1.66 4.47 2.48-3.97-.42-4.12.08-4.6 1.72-.28-1.78-.46-2.32-3.94-3 3.5.47 3.86.21 4.07-1.2zm-65.54-8.53c.51 4.13 1.44 4.75 12.83 7.1-11.38-1.2-11.84.23-13.23 4.93-.79-5.11-1.3-6.64-11.27-8.61 10.05 1.35 11.06.62 11.67-3.42zm37.64 15.34c.3 2.44.85 2.8 7.58 4.19-6.72-.7-7 .14-7.8 2.91-.47-3.02-.78-3.92-6.67-5.08 5.94.8 6.54.36 6.9-2.02zm-117.95-12.84c.28 2.2.77 2.53 6.82 3.77-6.05-.63-6.3.13-7.03 2.63-.42-2.72-.7-3.53-5.99-4.58 5.34.72 5.88.33 6.2-1.82zm359.78 55.9c.3 2.43.85 2.8 7.58 4.19-6.72-.7-7 .13-7.8 2.9-.47-3.01-.78-3.91-6.67-5.07 5.94.8 6.54.36 6.9-2.03zm14.27 10.77c.18 1.44.5 1.66 4.47 2.48-3.96-.42-4.12.08-4.6 1.72-.28-1.79-.46-2.32-3.94-3 3.5.47 3.86.21 4.07-1.2zm-332.29-49.15c.18 1.44.5 1.65 4.48 2.47-3.97-.41-4.13.08-4.61 1.72-.28-1.78-.46-2.31-3.94-3 3.5.47 3.86.22 4.07-1.2zm43.42 8.44c.27 2.2.76 2.52 6.82 3.77-6.05-.63-6.3.12-7.03 2.62-.42-2.71-.7-3.53-6-4.57 5.35.72 5.89.33 6.2-1.82zm-61.66-8.25c.18 1.44.5 1.66 4.47 2.48-3.97-.42-4.13.08-4.6 1.72-.28-1.79-.47-2.32-3.94-3 3.5.47 3.86.21 4.07-1.2zm340.51 55.23c.18 1.44.5 1.65 4.47 2.47-3.96-.41-4.12.08-4.6 1.72-.28-1.78-.46-2.31-3.94-3 3.5.47 3.86.21 4.07-1.2z" filter="url(#k)" style="-inkscape-stroke:none" transform="matrix(-.34365 -.13411 -.01117 .89411 -12.48 318.8)"/>
 </g>
 <path fill="#fff" stroke="#6a1eb2" stroke-width=".25" d="m113.78-324.85.28-.11.95-.38.16-.06 2.34 5.81a35.54 35.54 0 0 1-1.15.46l-.3.12zm2.78 7.37a1.15 1.15 0 0 1 .05-1 .75.75 0 0 1 .39-.32.78.78 0 0 1 .7.06c.18.1.33.24.44.42a1.3 1.3 0 0 1 .15.38c.05.21.04.42-.02.62l-.02.05a.8.8 0 0 1-1.17.42 1.19 1.19 0 0 1-.52-.63zm-4.12-3.95.36.95.02-.01c.06-.86.28-1.37.65-1.51a.99.99 0 0 1 .24-.05l.67 1.74c-.18.03-.35.07-.5.13-.52.2-.63.72-.3 1.57l1.05 2.8-1.05.39-.4.15-2.1-5.64a304.58 304.58 0 0 0 1.36-.52zm-2.1 5.24 1.22-.44c.24 1.35-.12 2.2-1.06 2.54-.59.21-1.15.1-1.69-.32a4.5 4.5 0 0 1-1.3-2.08c-.32-.9-.4-1.68-.26-2.34.14-.66.49-1.09 1.04-1.29.34-.12.7-.1 1.11.05.4.14.76.4 1.06.78a8 8 0 0 1 .98 1.95l-2.41.88c.32.83.66 1.18 1.02 1.05a.46.46 0 0 0 .27-.28.81.81 0 0 0 .02-.5zm-1.64-1.26 1.05-.37c-.16-.4-.31-.68-.46-.84-.15-.16-.3-.21-.48-.15a.44.44 0 0 0-.31.43c-.02.21.05.52.2.93zm-8.68.38 1.43-.46c.93 1.7 1.47 2.69 1.63 3.02h.02l-.58-3.38 1.22-.41 1.56 2.98h.02a73.7 73.7 0 0 1-.5-3.35l1.42-.5c.2 2.06.38 4.12.56 6.19l-1.11.38a52.86 52.86 0 0 1-1.67-2.86H104c.06.3.2 1.4.42 3.29l-1.1.36c-1.11-1.75-2.21-3.5-3.3-5.26zm-2.17 4.96c.62.21 1.04.28 1.26.21.13-.03.22-.1.27-.2a.4.4 0 0 0 .04-.32c-.04-.12-.1-.2-.18-.23a9.3 9.3 0 0 0-.9-.2 2.01 2.01 0 0 1-.97-.44 1.97 1.97 0 0 1-.53-.9 2.15 2.15 0 0 1 .04-1.51c.2-.46.53-.76 1-.9.41-.14.97-.1 1.68.08l.22.06-.04.49-.1.98c-.55-.19-.95-.24-1.23-.16-.24.08-.33.24-.25.48.04.12.11.2.23.27.11.05.3.1.57.12.5.06.9.18 1.18.38.15.11.29.25.4.42a2.76 2.76 0 0 1 .36 1.12c.02.34-.03.66-.15.96-.2.48-.55.8-1.05.95-.54.17-1.2.12-1.95-.15l.1-1.5zm-4.76-2.83.22.78h.03c.15-.75.48-1.2.97-1.34.32-.1.61-.04.88.17.27.21.47.54.61 1l1.34 4.47-1.5.45-1.04-3.57a.98.98 0 0 0-.25-.45c-.11-.1-.23-.14-.35-.1-.31.09-.4.38-.26.87l1.01 3.5-1.5.43-1.62-5.8 1.46-.41zm-.47 6.38-1.65.45-.64-1.35c-.55.15-1.1.3-1.66.43l.08 1.49-1.63.4c-.05-2.99-.14-5.97-.26-8.94l1.69-.43a411 411 0 0 0 4.07 7.95zm-2.98-2.34a43.33 43.33 0 0 1-1.45-3.46h-.02c.18 1.21.31 2.45.4 3.74l1.07-.28zm-7.44 2.96 1.29-.27c.04 1.38-.43 2.18-1.42 2.37a1.71 1.71 0 0 1-1.66-.57c-.48-.5-.8-1.26-1-2.27a4.3 4.3 0 0 1 .1-2.34c.23-.63.64-1 1.21-1.12.35-.06.71 0 1.1.21.37.2.69.52.93.93.25.42.49 1.11.72 2.07-.85.18-1.69.36-2.54.52.2.88.5 1.28.87 1.2.13-.03.24-.1.31-.24a.8.8 0 0 0 .1-.49zm-1.46-1.5 1.1-.2a2.8 2.8 0 0 0-.33-.9c-.13-.18-.28-.26-.46-.22-.2.04-.32.16-.37.37-.04.21-.02.53.06.96zm-6.99-4.65c.47-.05.94-.1 1.42-.17l.6 3.94h.03c.27-.7.64-1.07 1.11-1.14.34-.05.63.05.87.3s.41.63.5 1.15l.83 4.52-1.59.24-.6-3.63c-.04-.24-.1-.41-.2-.53-.1-.12-.21-.18-.35-.16-.31.04-.43.33-.35.86l.55 3.58-1.6.19-1.22-9.15zm-2.53 1.78 1.44-.09.18 1.6.57-.05.2 1.58-.61.04.49 4.42-1.64.1-.37-4.44-.58.02-.11-1.56.56-.02c-.05-.54-.1-1.07-.13-1.6zm-4.87 1.97.04 1a.2.2 0 0 0 .02 0c.33-.81.7-1.24 1.1-1.27.05 0 .13 0 .24.02l.08 1.86a2.52 2.52 0 0 0-.51-.01c-.56.04-.83.52-.79 1.42l.12 2.99-1.56.11-.2-6.02 1.46-.1zm-4.47.08a1.7 1.7 0 0 1 1.6.78c.38.55.59 1.34.61 2.37a4.24 4.24 0 0 1-.5 2.38c-.38.58-.9.88-1.59.92a1.72 1.72 0 0 1-1.57-.77 4 4 0 0 1-.6-2.3 4.69 4.69 0 0 1 .51-2.43c.36-.6.87-.91 1.54-.95zm.1 4.75c.2-.02.35-.14.44-.38a3 3 0 0 0 .13-1.19 3.17 3.17 0 0 0-.17-1.16c-.1-.21-.25-.32-.45-.3-.19 0-.34.12-.43.34-.1.22-.15.62-.14 1.2.02 1.01.23 1.5.62 1.49zM57-309.85v-1.4c0-.56.14-1 .43-1.34.29-.33.7-.5 1.2-.52l.6-.02.02 1.88-.38.01c-.11 0-.2.06-.27.16-.06.1-.1.23-.1.4v.78l.75-.03.02 1.59-.76.02.03 4.44-1.55.05v-4.44l-.54.02v-1.6H57zm-5 .07-.01 1.01H52c.38-.79.77-1.18 1.17-1.18.06 0 .14 0 .24.03l-.02 1.87a2.53 2.53 0 0 0-.52-.05c-.56 0-.85.45-.86 1.36l-.06 3H50.4l.14-6.03H52zm-3.88 4.18 1.3.01c-.28 1.35-.92 2.03-1.92 2.01-.62 0-1.1-.3-1.45-.9a4.34 4.34 0 0 1-.45-2.4c.03-.96.24-1.72.61-2.29.38-.57.86-.85 1.45-.84.36 0 .7.15 1.02.43.32.28.55.65.7 1.11.13.46.2 1.19.19 2.17-.86 0-1.71-.01-2.57-.03 0 .9.18 1.35.56 1.36.14 0 .25-.06.36-.18.1-.11.17-.26.2-.45zm-1.07-1.76 1.12.01c0-.42-.04-.73-.12-.93-.07-.21-.2-.32-.39-.32-.2 0-.35.1-.44.3-.1.19-.15.5-.17.94zm-5.8-2.6 1.48.05.47 3.28h.02l.74-3.24 1.51.03-1.74 6-1.25-.04-1.24-6.08zm-2.48-.31c.7.03 1.22.34 1.55.94.34.59.49 1.4.44 2.43-.05 1-.27 1.78-.68 2.32-.41.53-.95.79-1.63.76a1.76 1.76 0 0 1-1.5-.92 4.12 4.12 0 0 1-.44-2.35c.05-1.03.28-1.82.66-2.38.4-.57.93-.83 1.6-.8zm-.22 4.74c.2.01.35-.1.46-.32.12-.23.19-.62.22-1.18.02-.55 0-.95-.1-1.17-.08-.23-.22-.35-.42-.35-.2-.01-.35.09-.46.3-.11.21-.18.6-.21 1.18-.05 1.01.11 1.53.5 1.54zm-7.78-4.97-.06.81h.03c.4-.65.86-.96 1.37-.92.33.02.59.17.77.46.18.3.26.68.23 1.15l-.28 4.66-1.55-.1.24-3.7a.99.99 0 0 0-.08-.5c-.07-.14-.17-.22-.3-.22-.32-.03-.5.22-.53.73l-.25 3.64-1.54-.11.43-6 1.52.1zm-3.75-.28-.08 1a.2.2 0 0 1 .02.01c.42-.75.84-1.12 1.24-1.09.05 0 .14.03.24.06l-.14 1.86a2.53 2.53 0 0 0-.51-.1c-.56-.04-.88.39-.95 1.3l-.23 2.97-1.54-.12.5-6 1.45.11zm-6.47-.57a310.92 310.92 0 0 0 1.52.15l-.37 3.86a1 1 0 0 0 .07.5c.06.15.16.22.3.23.29.03.46-.22.51-.76l.34-3.75 1.52.13-.3 3.48a3.4 3.4 0 0 1-.68 1.98c-.38.44-.88.63-1.52.57a1.84 1.84 0 0 1-1.26-.56 1.5 1.5 0 0 1-.2-.3 3.22 3.22 0 0 1-.3-1.84l.37-3.69zm-4.03-1.98c.06-.88.1-1.27.13-1.17h.05l.24.03a141.62 141.62 0 0 0 3.3.36l-.2 1.99-1.09-.12-.7 6.7a229.9 229.9 0 0 1-1.65-.17l.76-6.7-.65-.08-.25-.02-.06-.01c-.03-.06-.07.15-.1.61zm78.85-14.85a1.1 1.1 0 0 1-.03-.81.92.92 0 0 1 1.3-.5 1.1 1.1 0 0 1 .57 1.4.89.89 0 0 1-.52.56c-.25.1-.5.08-.76-.04a1.14 1.14 0 0 1-.56-.61zM92.33-327a1.11 1.11 0 0 1-.02-.82.9.9 0 0 1 1.3-.5c.25.12.43.32.54.59.11.27.12.55.01.83a.9.9 0 0 1-.52.55c-.25.1-.5.09-.76-.04a1.13 1.13 0 0 1-.55-.61zm-3.05 1.19c-.1-.28-.1-.55-.01-.82a.9.9 0 0 1 .53-.55.9.9 0 0 1 .76.05c.26.12.44.32.55.59.1.27.1.55 0 .83a.91.91 0 0 1-1.29.52 1.13 1.13 0 0 1-.54-.62zm-5.57-3.34.29.77.02-.02c.13-.77.46-1.26 1-1.47.34-.14.66-.11.97.07.3.18.54.5.71.93l1.68 4.36-1.6.62-1.32-3.47a.9.9 0 0 0-.3-.42.38.38 0 0 0-.38-.06c-.33.13-.41.43-.23.91l1.3 3.41-1.6.62-2.11-5.64zm-4.8 1.53a2.05 2.05 0 0 1 1.96.25c.58.4 1.05 1.1 1.4 2.06.35.94.42 1.75.2 2.4a2.1 2.1 0 0 1-1.4 1.37 2.1 2.1 0 0 1-1.93-.24 3.77 3.77 0 0 1-1.35-2c-.33-.98-.4-1.8-.21-2.47.19-.67.63-1.13 1.34-1.37zm1.6 4.47c.22-.07.34-.23.36-.49a2.9 2.9 0 0 0-.24-1.17 2.93 2.93 0 0 0-.54-1.04c-.18-.18-.37-.23-.58-.16-.2.07-.32.23-.35.47-.04.24.04.63.23 1.17.33.96.7 1.36 1.12 1.22zm-6.86-4.43c-.09-.27-.08-.52.02-.75a.8.8 0 0 1 1.17-.37c.23.13.38.33.47.6.09.26.08.5-.02.75-.1.24-.27.4-.5.47a.8.8 0 0 1-.68-.1 1.06 1.06 0 0 1-.46-.6zm.58 1.7c.54-.16 1.07-.32 1.6-.5l1.9 5.72-1.68.53zm-3.53-.61 1.59-.46.46 1.53.63-.19.46 1.52-.64.19 1.29 4.24-1.68.5-1.23-4.28-.62.17-.42-1.5.6-.18zm-2.94 6.67c.67.23 1.13.3 1.39.24.13-.03.24-.1.31-.2s.1-.22.07-.33c-.04-.11-.1-.19-.19-.22-.1-.04-.41-.11-.97-.22-.45-.1-.8-.25-1.04-.47a1.81 1.81 0 0 1-.5-.93 2.04 2.04 0 0 1 .16-1.52 1.8 1.8 0 0 1 1.17-.88c.33-.09.74-.1 1.22-.01.26.04.54.1.85.2l-.27 1.48-.14-.05a2.25 2.25 0 0 0-1.2-.14c-.26.07-.37.23-.3.47.03.12.1.21.22.28.13.06.34.1.63.14.36.04.66.11.91.21.14.06.25.12.35.2.3.2.52.5.63.92a2.07 2.07 0 0 1-.2 1.71c-.27.42-.66.7-1.19.83-.61.17-1.34.1-2.16-.2l.25-1.51zm-2.75.75 1.44-.33c.04 1.38-.5 2.21-1.64 2.44a1.97 1.97 0 0 1-1.85-.52 3.97 3.97 0 0 1-1.03-2.26c-.16-.94-.1-1.72.19-2.35.28-.64.72-1.02 1.35-1.15a1.8 1.8 0 0 1 1.18.18c.41.19.75.48 1.02.9.26.4.52 1.09.76 2.04-.93.22-1.87.43-2.82.61.2.88.5 1.27.94 1.18a.55.55 0 0 0 .35-.25.7.7 0 0 0 .11-.5zm-1.58-1.45 1.22-.26c-.1-.4-.22-.7-.35-.88-.14-.18-.3-.25-.5-.2a.5.5 0 0 0-.41.38c-.06.2-.05.53.04.96zm-7.1-1.48a146.23 146.23 0 0 0 1.65-.16l.4 3.86c.02.2.08.36.18.49.1.12.23.17.38.15.35-.04.48-.33.42-.86l-.46-3.74c.54-.07 1.08-.14 1.62-.23l.54 3.45c.13.87.05 1.57-.27 2.1-.33.52-.87.83-1.63.91-.41.05-.78.03-1.1-.06-.3-.09-.55-.25-.75-.48a2.95 2.95 0 0 1-.68-1.74l-.3-3.7zm-1.39 5.03.85 1-.97.9-.72-.86c-.36.26-.79.4-1.28.43a2.4 2.4 0 0 1-2.26-1.09 6.66 6.66 0 0 1-.91-3.47c-.06-1.4.13-2.51.58-3.32a2.3 2.3 0 0 1 1.97-1.3c.92-.05 1.64.3 2.18 1.05a6.5 6.5 0 0 1 1 3.32 6.7 6.7 0 0 1-.44 3.34zm-2.12-.54-.76-.95.94-.9.5.63c.04-.3.03-.8-.01-1.47-.11-1.7-.5-2.53-1.16-2.5-.63.04-.9.9-.81 2.58.06 1.08.18 1.8.36 2.14.18.36.43.52.74.5l.2-.03zM44-315.35l-.02-.79h-.02a3 3 0 0 1-.6.77c-.19.17-.41.25-.68.26-.51 0-.93-.28-1.24-.86a5.16 5.16 0 0 1-.5-2.37c0-.97.14-1.74.43-2.31.3-.58.7-.88 1.2-.89.27 0 .5.07.68.22.2.14.4.38.6.7h.02l-.01-.75 1.69-.04.16 6.02-1.71.04zm-.07-3.04c-.02-1-.25-1.5-.68-1.48-.44 0-.65.51-.64 1.51.02 1.04.26 1.55.72 1.54.42 0 .62-.53.6-1.57zm-11.38-6.04h1.69l.02 5.35h.03a3186.06 3186.06 0 0 0 1.15-2.16l2.03-.02-1.7 2.72 1.78 3.3-1.97.02-.84-1.92-.44-1h-.03l.01 2.93h-1.7zm-4.35 7.28c.58.38 1 .57 1.25.57.14 0 .26-.04.35-.11.1-.09.14-.19.14-.3a.34.34 0 0 0-.11-.27l-.88-.46c-.4-.2-.7-.43-.88-.7a1.84 1.84 0 0 1-.27-1.02 2 2 0 0 1 .53-1.44 1.8 1.8 0 0 1 1.36-.56 4 4 0 0 1 1.98.72l-.65 1.36c-.51-.35-.93-.53-1.25-.53-.28 0-.42.13-.42.38 0 .12.05.23.15.32.11.09.3.19.57.3.51.2.88.44 1.11.72.24.28.36.63.36 1.06 0 .6-.18 1.11-.55 1.5-.36.4-.83.6-1.4.6-.61 0-1.27-.25-1.98-.73l.59-1.41zm-.9 1.94h-1.85l-.3-1.46H23.3l-.3 1.46h-1.82c.7-2.91 1.38-5.82 2.07-8.74h1.98l2.08 8.74zm-2.49-3.03c-.27-1.3-.47-2.54-.6-3.71h-.02c-.14 1.2-.34 2.45-.59 3.71z" filter="url(#l)" font-family="Tw Cen MT Condensed Extra Bold" font-size="13.41" style="line-height:1.25;-inkscape-font-specification:'Tw Cen MT Condensed Extra Bold, '" transform="translate(21.9 519.63)"/>
 <path fill="#fff" stroke="#6a1eb2" stroke-width=".1" d="M-634.68-25v.33h.01q.27-.4.6-.4.37 0 .58.38.22.36.22.99 0 .6-.22.97-.23.36-.58.36-.36 0-.6-.42h-.01v1.38h-.8V-25zm.61 1.27q0-.63-.31-.63-.3 0-.3.63 0 .65.3.65.31 0 .31-.65zm-4.06-1.26h.8v1.63q0 .13.06.21.06.08.16.08.23 0 .23-.33V-25h.8v1.48q0 .56-.26.85-.26.3-.75.3-.55 0-.8-.3-.24-.3-.24-.76zm-2.77-1.35h.8v3.88h-.8v-.33h-.02q-.27.42-.6.42-.36 0-.57-.37-.22-.37-.22-.99 0-.61.22-.98.22-.36.58-.36.33 0 .6.37zm0 2.6q0-.63-.3-.63-.32 0-.32.67 0 .29.09.45.08.16.23.16.14 0 .22-.17.08-.17.08-.48zm-3.13-1.25v.34h.01q.28-.42.69-.42.26 0 .42.17.15.18.15.48v1.96h-.8v-1.56q0-.13-.06-.21-.06-.08-.15-.08-.26 0-.26.32v1.53h-.8v-2.53zm-2.2 2.53v-.33h-.02q-.15.22-.28.32-.14.1-.32.1-.36 0-.58-.37-.21-.37-.21-1 0-.61.21-.97.22-.36.58-.36.19 0 .32.1.13.09.27.3h.02V-25h.8v2.53zm0-1.28q0-.63-.32-.63-.3 0-.3.63 0 .66.31.66.3 0 .3-.66zm-3.9-.73q.32.14.5.42.17.27.17.62 0 .49-.3.78-.3.29-.8.29-.52 0-.82-.29-.3-.29-.3-.78l.01-.23.05-.2q.04-.1.1-.19.04-.08.11-.15.08-.08.17-.14l.2-.12-.01-.01h-.01q-.17-.08-.28-.18-.1-.1-.18-.26-.08-.18-.08-.4 0-.4.3-.66.29-.26.72-.26.45 0 .73.27.29.26.29.68 0 .28-.14.47-.13.2-.42.34zm-.23-.69q0-.4-.21-.4-.22 0-.22.36 0 .21.05.3t.17.09q.2 0 .2-.35zm.08 1.66q0-.54-.3-.54t-.3.5q0 .52.31.52.3 0 .3-.48zm-5.6-2.64h.84v1.74h.01l.79-1.74h.88l-.86 1.88.82 1.8h-.92l-.7-1.53h-.02v1.53h-.84zm-3 0h.79q.8 0 1.23.47.42.46.42 1.35 0 .67-.2 1.08-.22.41-.59.6-.37.18-.82.18h-.82zm.84.79v2.1q.38-.02.54-.26.16-.24.16-.78 0-.32-.06-.54-.05-.22-.16-.34-.11-.12-.22-.15l-.26-.03zm-2.43-.79h.83v2.65q0 .51-.27.82-.26.32-.7.32-.27 0-.54-.16v-.83q.25.16.36.16.32 0 .32-.4zm-138.16 175.2c.2.3.35.46.45.49.06.02.11.01.16-.02a.22.22 0 0 0 .08-.14c.02-.07.01-.13-.02-.17a5.67 5.67 0 0 0-.3-.36 1.22 1.22 0 0 1-.28-.51 1.4 1.4 0 0 1 0-.6c.07-.31.19-.55.36-.7.18-.16.37-.2.58-.14.2.06.44.27.7.62l-.38.68c-.17-.25-.31-.4-.44-.44-.1-.03-.18.02-.2.16a.3.3 0 0 0 .03.2c.03.05.1.13.2.22.18.18.3.35.37.53.07.18.08.4.05.63-.06.34-.18.6-.36.76a.61.61 0 0 1-.64.15c-.26-.08-.51-.3-.75-.68l.4-.68zm-1.13-.38.58.24c-.27.69-.63.95-1.09.74-.28-.12-.46-.39-.54-.78-.08-.39-.04-.85.12-1.39.14-.5.33-.86.55-1.09.23-.23.46-.3.7-.19.14.07.27.2.37.41.1.2.16.44.17.72.01.27-.04.68-.14 1.22-.38-.15-.75-.3-1.12-.48-.11.48-.09.76.08.84.06.03.12.02.18-.03.06-.04.11-.1.14-.2zm-.25-1.15.47.22c.05-.23.07-.41.06-.53 0-.13-.05-.2-.13-.24-.08-.04-.16-.02-.22.07-.06.09-.12.25-.18.48zm-1.63-4.18.05.04c.18.15.36.28.54.4-.1.74-.15 1.3-.2 1.7l.81-1.3.67.37c-.47.72-.96 1.42-1.48 2.09l-.65 2.04c-.25-.14-.49-.3-.72-.46l.72-2a34.31 34.31 0 0 1 .26-2.88zm-2.18-.47c.2.26.28.57.25.95-.03.39-.16.82-.42 1.29-.25.45-.51.73-.8.8-.29.09-.57-.04-.82-.37-.25-.32-.35-.7-.3-1.12.03-.42.22-.8.52-1.16.31-.38.61-.6.88-.66.27-.07.5.01.69.27zm-1.32 1.97c.07.1.16.11.26.06.1-.06.22-.2.37-.44s.24-.42.27-.56c.03-.13.01-.23-.05-.31-.06-.08-.14-.1-.23-.05-.1.04-.22.18-.39.41-.28.4-.37.7-.23.89zm.8-5.22a7.83 7.83 0 0 0 .7 1.44l-.63.73-.25-.45-2.19 2.3a14.02 14.02 0 0 1-.47-1l2.33-2-.2-.5.72-.52zm-1.03-2.23.15.78-.62.28.07.32-.6.3-.08-.35-1.7.78c-.08-.35-.15-.7-.2-1.05l1.73-.62-.05-.34.62-.2.05.32.63-.22zm-.88-1.94-.33.06v.01c.29.17.44.4.47.7.02.2-.02.36-.11.5a.73.73 0 0 1-.43.3l-1.84.52-.11-1.05 1.47-.31a.33.33 0 0 0 .2-.11.27.27 0 0 0 .06-.2c-.02-.2-.13-.29-.33-.25l-1.46.26-.06-1.04 2.42-.3c0 .3.03.61.05.91zm.62-2.65c.12 0 .21.03.3.12a.55.55 0 0 1 .01.68.4.4 0 0 1-.28.17.34.34 0 0 1-.3-.12.5.5 0 0 1-.12-.34c0-.13.03-.25.11-.35.08-.1.17-.16.28-.16zm-.72.07.02.94-2.42.22-.02-1.02zm.08-1.93c0 .44-.12.77-.35 1.01-.14.15-.32.25-.53.32a1.77 1.77 0 0 1-.86.03 1 1 0 0 1-.52-.29 1.43 1.43 0 0 1-.34-1.02c0-.41.12-.74.35-.99.23-.24.54-.37.94-.38.42 0 .74.1.97.33.23.23.35.56.34.99zm-1.9.05c0 .13.04.22.13.28.1.06.25.1.48.09.22 0 .38-.04.47-.1a.33.33 0 0 0 .13-.3.31.31 0 0 0-.13-.27c-.08-.07-.24-.1-.48-.1-.4.02-.6.15-.6.4zm2.9-4.66.03 1.35c0 .47-.1.84-.3 1.12a.95.95 0 0 1-.79.43.91.91 0 0 1-.8-.4c-.2-.26-.29-.64-.3-1.12v-.17l-1.33.07-.02-.98 3.5-.3zm-.65 1.13-.83.04c0 .23.04.4.1.51.07.11.17.16.31.16.16 0 .26-.07.32-.18.07-.1.1-.29.1-.53zm-2.45-4.99c-.1.36-.14.6-.12.74a.3.3 0 0 0 .08.17c.03.04.08.05.12.04a.14.14 0 0 0 .1-.1l.1-.52c.05-.25.12-.44.2-.58a.76.76 0 0 1 .37-.3.55.55 0 0 1 .62.1c.18.15.3.41.34.75.04.33 0 .76-.15 1.27-.19-.1-.38-.18-.57-.26.1-.33.14-.6.12-.78-.02-.17-.09-.23-.19-.2-.04.01-.08.05-.1.12-.03.07-.06.2-.08.36-.04.31-.12.55-.21.7a.6.6 0 0 1-.4.29.68.68 0 0 1-.63-.16 1 1 0 0 1-.32-.65c-.04-.3 0-.63.1-1.04l.02-.03h.06l.54.08zm.97-3.11-.3.2v.02c.33.06.54.27.64.62a1 1 0 0 1-.02.62.74.74 0 0 1-.4.4l-1.78.85-.2-.78 1.38-.82a.4.4 0 0 0 .17-.18.32.32 0 0 0 .02-.23c-.06-.2-.2-.24-.38-.11l-1.33.9-.26-.72 2.1-1.74c.13.31.25.64.36.97zm-3.04-.37.27-.3a.74.74 0 0 1-.26.03.33.33 0 0 1-.26-.15c-.13-.2-.16-.45-.1-.78s.22-.72.48-1.14c.26-.42.5-.68.76-.78.25-.1.48-.02.65.23.1.15.16.33.17.54 0 .11-.01.23-.04.36l.01.01.2-.23c.17.29.33.59.47.9l-1.86 1.79c-.17.16-.34.29-.52.38a.71.71 0 0 1-.5.08.58.58 0 0 1-.3-.17.7.7 0 0 1-.07-.09 1.17 1.17 0 0 1-.14-.57 1.9 1.9 0 0 1 .2-.86c.13.15.25.3.36.47-.05.18-.05.31 0 .4.04.04.07.07.12.08l.1-.01a.52.52 0 0 0 .26-.19zm.98-1.15c.25-.28.35-.52.32-.7a.34.34 0 0 0-.05-.13c-.06-.1-.15-.13-.25-.1a.98.98 0 0 0-.34.32c-.32.43-.42.73-.31.9.02.04.05.07.08.08.12.04.3-.08.55-.37zm-.67-4.36a.4.4 0 0 1 .27-.24c.12-.02.23.02.33.12.1.1.16.24.18.4.02.17 0 .31-.08.44a.39.39 0 0 1-.27.2c-.12.02-.22-.02-.32-.11a.66.66 0 0 1-.17-.38c-.02-.16 0-.3.06-.43zm-.4.87c.22.2.43.4.63.63l-1.51 2.68a8.23 8.23 0 0 0-.48-.48zm-2.96 1.54.33-1.05c.15.31.28.5.41.6.08.05.15.06.22.02a.39.39 0 0 0 .17-.23.64.64 0 0 0 .04-.29c0-.1-.04-.24-.1-.41a6.05 6.05 0 0 1-.25-1.07c-.03-.3 0-.6.08-.88.12-.4.3-.67.57-.8.27-.14.55-.12.84.09.22.15.41.37.57.66l-.4.96a1.56 1.56 0 0 0-.43-.63c-.09-.07-.17-.09-.24-.06-.08.02-.13.1-.17.2-.07.19-.02.47.12.87.08.23.14.52.17.87s-.03.67-.16.99c-.16.36-.38.6-.63.73a.66.66 0 0 1-.72-.05c-.16-.1-.3-.28-.42-.52zm24.26-95.83-.14.3v.02c.24-.1.44-.07.62.1.1.13.18.27.21.45s.02.37-.05.57l-.65 1.94a7.5 7.5 0 0 1-.68-.67l.6-1.45a.52.52 0 0 0 .05-.25.34.34 0 0 0-.07-.2c-.12-.13-.22-.11-.31.08l-.65 1.36a9.1 9.1 0 0 1-.6-.88l1.22-2.03c.14.24.3.45.45.66zm-.65-2.5c.07-.07.14-.1.21-.07.08.03.13.08.17.18.04.1.06.2.04.32 0 .04 0 .07-.02.1a.58.58 0 0 1-.1.22c-.04.06-.08.1-.14.1h-.06c-.08-.01-.15-.08-.2-.2a.7.7 0 0 1-.03-.36.51.51 0 0 1 .13-.3zm-.44.46c.1.27.2.53.31.77l.02.04-1.35 1.8-.03-.06c-.16-.34-.3-.7-.43-1.07zm-2.06-.7.21-.13v-.02a1.12 1.12 0 0 1-.42-.8c-.06-.39-.01-.72.13-1s.35-.45.63-.54c.27-.08.5-.04.67.1.18.14.29.36.33.66.02.16.02.3 0 .43l-.02.11a2.7 2.7 0 0 1-.1.36l.2-.12c.06.33.13.64.22.95l-1.57 1.24c-.1-.41-.2-.82-.28-1.25zm.82-.48c.23-.13.34-.3.35-.52l-.01-.12c-.05-.27-.2-.36-.48-.24-.29.13-.41.35-.36.68 0 .04.02.08.03.1.07.21.23.24.47.1zm-1.25-3.71.24-.04a1.36 1.36 0 0 1-.26-.82c0-.41.06-.74.21-.98a.82.82 0 0 1 .65-.4.7.7 0 0 1 .65.27c.16.2.24.48.25.85 0 .32-.06.6-.2.85l-.01.01.18-.03.05 1.11-1.56.38a.5.5 0 0 1-.43-.08c-.13-.1-.25-.29-.34-.58a3.83 3.83 0 0 1-.05-2.01c.08-.32.22-.53.41-.64l.02 1.08a.87.87 0 0 0-.12.5c0 .16.04.29.1.4.06.1.13.14.2.13zm.9-.15c.27-.04.4-.21.4-.5a.51.51 0 0 0-.12-.34c-.06-.08-.16-.11-.28-.1-.31.04-.46.22-.45.54 0 .32.16.45.44.4zm-.95-2.28V9.55l-.01-.11.41-.25c0-.43-.02-.86-.04-1.28-.14-.05-.28-.1-.42-.13l-.07-1.16c.86.2 1.72.53 2.57.92l.03 1.48-.46.32-2 1.37zm.84-1.8c.37-.23.72-.42 1.05-.56v-.01a7 7 0 0 1-1.07-.28l.02.85zm-.86-8.53c.2.31.37.65.53 1.02-.07.24-.16.47-.25.7-.09.24-.2.46-.3.65l.01.02a1.55 1.55 0 0 1 .51-.18l.45-.07c.12.4.22.82.3 1.24a4.39 4.39 0 0 0-2.53.43c-.07-.2-.16-.4-.25-.59.23-.18.46-.35.7-.5.35-.8.63-1.73.83-2.72zm-.83-1.09-.16.4.01.01.06-.03c.26-.1.48-.04.64.17l.1.16-.36.67a2.1 2.1 0 0 0-.19-.29c-.17-.22-.33-.23-.46-.04a.98.98 0 0 0-.1.18l-.47 1.19a4.2 4.2 0 0 0-.52-.48l.79-2.55c.22.18.45.39.66.61zm-2.62-2.98c.65.2 1.32.5 1.98.98l-.23.86a6.55 6.55 0 0 0-.54-.34l-.68 3c-.2-.12-.42-.22-.64-.31l.52-3.08a6.89 6.89 0 0 0-.54-.2l.13-.9zm8.72-2.98c.2.13.43.24.66.34a16 16 0 0 0-.03.86l-.02.9h.01c.1-.24.18-.41.24-.51l.47-1.01c.24.07.49.12.74.16a20.72 20.72 0 0 1-1.95 4.14 8.69 8.69 0 0 1-1.06-.44c.27-.36.53-.72.78-1.1-.04-1.13 0-2.25.15-3.34zm-1.5-1.3a6.13 6.13 0 0 0 1.34 1.2 9.73 9.73 0 0 1-1.68 1.5 7.73 7.73 0 0 0 .76.58l-.31.74a8.22 8.22 0 0 1-1.95-1.78 9.6 9.6 0 0 0 1.9-1.06 7.62 7.62 0 0 1-.52-.57zm-2.86.78.27-.26h-.02a1 1 0 0 1-.44-.12.74.74 0 0 1-.3-.32 1.2 1.2 0 0 1-.04-.98c.13-.34.38-.64.75-.9.35-.26.67-.38.94-.38.28 0 .48.11.6.35.07.12.1.25.1.38a2.27 2.27 0 0 1-.1.5l.02.01.25-.24c.15.25.3.5.47.72l-1.87 2.2c-.22-.3-.43-.63-.62-.96zm1.03-.99a2 2 0 0 0 .19-.2c.18-.24.22-.44.13-.6-.12-.22-.35-.18-.7.11-.37.31-.49.6-.34.85.1.18.26.2.5.03l.22-.19zm.17-6.33.28.97-1.27.65.28.89 1.25-.72c.1.3.2.6.32.88l-3.27 2.15-.41-1.1 1.4-.8-.3-.92-1.43.73-.33-1.11zm-2.4-4.84.25 1.03-.57.52a10.5 10.5 0 0 1-.6.5l.47-.03h.93l.25 1.03c-1.25.01-2.5 0-3.76-.02l-.24-1.03h1.13c.72-.66 1.43-1.32 2.14-2zm.89-2.1.27 1.08-3.7 1.53-.25-1zm-2-1.95-.3.16.01.02c.32.1.52.3.61.6.1.31.05.62-.13.92-.17.3-.46.53-.85.71-.38.17-.7.22-.99.14a.72.72 0 0 1-.54-.52c-.09-.3-.03-.6.17-.92v-.02l-1.28.68a24.57 24.57 0 0 0-.3-.85l3.25-1.97a21.13 21.13 0 0 1 .35 1.05zm-.92 1.4c.39-.2.54-.43.46-.7-.08-.26-.32-.28-.7-.07-.4.21-.56.44-.49.68.08.25.32.28.73.08zm-1.6-2.87.33.76c-.57.2-.97.02-1.21-.5a1.43 1.43 0 0 1-.09-1.01c.1-.36.3-.73.64-1.07.32-.31.63-.47.95-.43.33.03.6.25.8.65a1.71 1.71 0 0 1-.04 1.56c-.13.22-.38.45-.75.7a16.9 16.9 0 0 0-.7-1.52c-.3.29-.4.53-.3.74.03.07.08.12.15.14.07.03.14.02.22-.02zm.3-1.15.34.67c.15-.12.25-.24.3-.35a.39.39 0 0 0-.01-.34c-.07-.13-.15-.2-.25-.19-.1 0-.22.07-.37.2zm-1.55-5.63c.4.3.78.64 1.14 1 .43.43.66.9.73 1.34.06.45-.05.82-.31 1.1a.98.98 0 0 1-.49.3.81.81 0 0 1-.56-.05 18.3 18.3 0 0 1-.77 2.04 7.3 7.3 0 0 0-.52-.71c.24-.68.43-1.4.57-2.15l-1.01 1.68a3.94 3.94 0 0 0-.59-.46l1.81-4.09zm.56 1.56-.53.88c.34.32.58.39.75.15a.6.6 0 0 0 .12-.48 1.18 1.18 0 0 0-.34-.55z" filter="url(#m)" font-family="Tw Cen MT Condensed Extra Bold" font-size="5.64" style="line-height:1.25;-inkscape-font-specification:'Tw Cen MT Condensed Extra Bold, '" transform="rotate(-2 1134.97 -23307.53)"/>
 <g fill-rule="evenodd" stroke-linecap="square" color="#000">
  <path fill="url(#n)" stroke="#5418b2" stroke-width=".25" d="m122.55-365.89 37.76 23.31-38.52 25.83z" filter="url(#o)" transform="translate(21.9 519.63)"/>
  <path fill="#5418b2" stroke="#fff" stroke-width=".5" d="M149.35-343.09c.79-.63 2.49-.4 2.8 1.11.21.97-1.11 2.32-2.33 1.8-1.24-.53-1.23-2.3-.47-2.91zm-4.42-7.02 5.1 5.7-2.15 1.55-5.09-6.24zm-10.62-6.93 2.5 1.36-.38-2.32 2.35-.86.26 4.14 2.37 3.2-2.09 1-2.53-3.12-4.84-2.16zm-3.58 1.5-4.23 1.46 3.84 7.88 2.78-1.31-1.85-3.16 3.73 2.28 2.67-1.24-4.23-2.38c.85-1.47.23-4.21-2.71-3.54zm.88 1.95c.31.64-1.15 1.85-1.15 1.85l-1.01-1.95s1.83-.57 2.16.1zm-12.6 2.12 6.84-2.56.89 1.6-2.03.9 3.25 6.51-3.04 1.25-3.08-6.6-2.14.8zm30.44 12.02-4.37 3.09-7.8-10.08 4.82-2.27 1.28 1.64-2.32 1.2 1.22 1.62 1.96-1.16 1.6 1.87-1.99 1.23 1.5 1.98 2.24-1.28zm-19.57 12.87-4.08-14.1 4.11-2.18 4.38 5.2-2.08-6.37 3.54-1.63 8.26 9.79-3 2.05-5.03-7.05 2.78 8.45-2.45 1.37-5.91-7.13 3.67 8.83z" filter="url(#p)" transform="translate(21.9 519.63)"/>
 </g>
 <path fill="#fff" fill-opacity=".8" d="M-3.87 189.68c1.8-.47 3.74 1.34 3.4 3.24-.19 1.61-1.83 2.87-3.39 2.49a2.94 2.94 0 0 1-.01-5.73zm-20.92-15.23c2.84-.66 5.8-.34 8.64.23 2.59.01 5.17-.2 7.76-.18-.15 1.7.3 4-.22 5.31-1 .09-2.64-.46-3.22-.04a7.28 7.28 0 0 1 .83 4.53c-.1 2.58-1.29 5.37-3.76 6.38-2.42 1.08-5.16 1.16-7.76 1-1.36-.32-1.7 2.72-.41 3.1 1.74.47 3.58.26 5.37.37 2.66.14 5.7.28 7.7 2.33 1.66 1.88 1.62 4.64 1.34 7-.5 2.9-2.92 5.02-5.58 5.83-3.62 1.1-7.49.95-11.19.43-2.44-.37-5.2-1.5-6.05-4.1-.77-2.3-.4-5.05 1.34-6.79.61-.87 2.46-1.53.97-2.44-.91-1.28-1.36-3.12-.5-4.56.57-1.27 2.12-2.6.26-3.45-2.28-2.41-2.5-6.16-1.8-9.28.67-3.07 3.38-5.1 6.28-5.67zm2.66 4.9c-1.93.13-2.96 2.21-2.68 4.01a3.1 3.1 0 0 0 3.25 3.2c1.5.17 3.4-.3 3.89-1.97.61-1.8.3-4.44-1.75-5.07a6.9 6.9 0 0 0-2.7-.16zm-1.78 21.35c-1.28.82-2.07 3.37-.4 4.2 2.02.9 4.29.72 6.42.59 1.49-.07 3.3-1.11 2.87-2.9-.52-2.2-3.34-1.37-4.96-1.63-1.31-.02-2.62-.24-3.93-.26z" filter="url(#q)" style="mix-blend-mode:normal" transform="translate(179.14 136.07) scale(.35278)"/>
 <path fill-rule="evenodd" stroke="#fff" stroke-linecap="square" stroke-opacity=".8" stroke-width="2" d="M12.78-480.28c21.05-19.41 47.03-17.53 64.25 4.5 8.96-10.35 22.62-7.58 27.64.65 13.08 4.21 29.25.06 38.56-11.84 3.48 9.2 5.59 15.64 10.56 31.47-14.48 13.76-34.07 17-50.17 2.45-8.33 9.51-21.5 7.8-28.24-2.63-15.74-8.17-33.03-12.6-53.92 12.18z" color="#000" filter="url(#r)" transform="translate(21.9 519.63)"/>
 <path fill="url(#s)" fill-rule="evenodd" stroke="#7c20b4" stroke-linecap="square" stroke-width=".5" d="M68.17-460.68c-6.84-.1-6.32-23.44.14-21.04 4.58 1.7 5.9 6.36 5.26 12.83l-4.17-3 .23-4.2-1.5-.86-.9 10.72 1.6.65.18-3.37 4.53 2.89c-.77 3.18-1.65 5.8-5.37 5.38zm-10.14-3.87v-22.32l4.55 1.96-.18 20.9zm-5.64.27c-8.11 1.08-8.9-27.58-2.24-25.72 3.86 1.07 6.65 5.24 6.66 11.89l-4.8-.58-.14-4.79-2.22-.26 1.26 14.63 2.2-.02-.09-2.65-1.65.04-.03-3.91 5.93.27c-.17 8.29-.68 10.84-4.88 11.1zM41.73-490.1l-6.28.97.77 29.07 4.38-2.06-.8-9.4 1.33-.13 1.49 9.13 3.97-1.31zm-1.76 8.72.9 6.03-1.77.39-.23-6.2zm-16.68 32.6L16.4-479.5l5.2-3.96 4.5 11.13-.35-15.16 4.93-2.01 4.44 30.74-3.38 2.5-2.86-16.3.04 10.75-2 1.64-3.5-8.47 3.48 16.47z" color="#000" filter="url(#t)" transform="translate(21.9 519.63)"/>
 <path fill="url(#u)" fill-rule="evenodd" stroke="#7c20b4" stroke-linecap="square" stroke-width=".5" d="m143.43-449.2-7.14-28.11 3.13-2.98 6.34 22.23 3.9-3.36 1.56 6.52zm-10.46 2.74-4.53-25.82 3.45-1.77 4.5 20.7 4.52-1.64 1.25 5.93zm-17-23.83c-1.56-2.17-8.16-2.42-8.16-2.42l-.15 4.5 1.14.12-.33 16.06s5 3.09 7.86 3.19c3.38-1.07 2.9-9.05-.6-11.59 1.69-.63 4.52-4.66.23-9.86zm-4.24 2.35 1.77.13.11 5.05-1.9-.62zm2.31 9.2.14 4.8-2.16-.72-.03-4.68zm11.49-12.17-5.01.62-.76 22.7 4.76.87-.74-7.14 1.49-.16 1.33 7.98 4.67.06zm-1.39 8.15.62 5.2-1.24.13-.23-5.25z" color="#000" filter="url(#v)" transform="translate(21.9 519.63)"/>
 <path fill-rule="evenodd" stroke="#fff" stroke-linecap="square" d="M77.98-471.4c2.6-8.07 18.34-11.76 25.4-.91 4.64 7.13-.7 21.67-12.27 22.39-8.38.51-17.3-8.61-13.13-21.49z" color="#000" filter="url(#w)" transform="translate(21.9 519.63)"/>
 <path fill="url(#x)" fill-rule="evenodd" d="M83.18-468.64c1.56-4.83 11-7.04 15.24-.54 2.79 4.28-.42 13-7.36 13.43-5.03.31-10.38-5.16-7.88-12.89z" color="#000" transform="translate(21.9 519.63)"/>
 <path fill="none" stroke="#202020" stroke-width="2" d="m111.52 61.48-3.22-10.6 4.58-1.34 1.93.82.6 1.94-.95 2.05-4.35 1.43 4.35-1.43 1.86 1.71 1.19 3.41"/>
 <g color="#000">
  <path fill-rule="evenodd" stroke="#fff" stroke-linecap="square" stroke-opacity=".8" stroke-width=".24" d="M-810.74.9c4.74-20.2 8.79-2.4 9.98 7.37.09 3.28-.6 11.19-.72 14.41.89-1.34 1.5-3.4 2.93-6.65.19 4.08.76 21.83 1 28.83-3.62 11.15-5.83 6.8-8.41-1.7-2.55 9.34-4.65-1-4.03-12.28l-.77 2.33z" filter="url(#y)" style="mix-blend-mode:normal" transform="matrix(1.12953 0 0 1 917.92 25.82)"/>
  <path fill="url(#z)" fill-rule="evenodd" stroke="#7c20b4" stroke-linecap="square" stroke-width="1.23" d="M418.21-71.53c-14.9-7.65-3.93-43.68 3.98-36.78 7.1 2.22 7.22 15.62 6.59 22.1l-6.16-4.74.9-8.17-3.36-2.44-3.94 20.64 3.72 2.64 1.36-5.09 6.52 4.6c-.77 3.2-4.3 10.43-9.6 7.24zm-19.4-7.84 4.9-42.82 7.86 4.34-4.8 40.22zm-11.32-1.18c-15.12-.38-12.38-51.27 1.33-47.95 5.13 1.24 10.89 6.96 9.57 22.2l-8.51-2.42 1.19-8.89-5.4-1.46-.06 30.25 4.84-.42.18-6.1-2.97-.09.36-6.42 10.7 2c-.04 10.67-3.73 19.56-11.23 19.3zm-16.21-50.95-10.52.57-4.66 55.92 7.56-2.59.39-18.4 3.7-1.05.3 18.66 8.21-1.98zm-4.15 16.12.64 11.45-2.7.4-.24-11.77zm-37.8 61.8-6.6-65.62 9.78-4.43 6.55 23.85 2.65-30.04 9.33-2.47 2.9 58.97-7.08 4.08-2.46-35.2-1.82 23.7-4.2 2.1-5.92-18.39 4.04 37.06z" filter="url(#A)" style="mix-blend-mode:normal" transform="matrix(.09413 .00208 -.01244 .44186 -29 78.4)"/>
  <path fill="url(#B)" fill-rule="evenodd" stroke="#7c20b4" stroke-linecap="square" stroke-width=".24" d="m-799.76 47.5-.1-24.97.62-2.3.19 19.8.75-2.56v5.78zm-1.78 1.45.24-22.75.62-1.23-.06 18.32.8-1.03-.03 5.25zm-1.84-22.13c-.17-2.01-1.18-2.76-1.18-2.76l-.2 3.87.15.16-.66 13.88s.7 3.11 1.15 3.45c.58-.63.8-7.57.33-10.08.3-.4.9-3.64.41-8.52zm-.77 1.66.28.27-.17 4.38-.28-.7zm.03 8.18-.16 4.15-.32-.8.17-4.06zm2.3-9.53-.83.1-.97 19.58.73 1.17.15-6.25h.25l-.09 7.03.75.46zm-.53 6.93-.1 4.56h-.2l.16-4.56z" filter="url(#C)" transform="matrix(1.12953 0 0 1 917.92 25.82)"/>
  <path fill-rule="evenodd" stroke="#fff" stroke-linecap="square" stroke-opacity=".8" stroke-width=".24" d="M-809.09 29.03c.5-5.7 2.66-8.27 3.42-.56.5 5.07-.48 15.36-2.04 15.83-1.13.34-2.16-6.16-1.38-15.27z" filter="url(#D)" style="mix-blend-mode:normal" transform="matrix(1.12953 0 0 1 917.92 25.82)"/>
  <path fill="#fff" fill-rule="evenodd" d="M4.76 56.83c.34-3.42 1.8-4.96 2.32-.33.33 3.04-.33 9.22-1.38 9.5-.77.2-1.47-3.7-.94-9.17z"/>
  <path d="m-808.24 30.87.24 7.6.47-.01-.13-3.92h.01c.49-1.5.46 1.92.49 2.53l.47-.02c.01-1.24-.1-2.43-.32-3.64.18-1.07.15-1.9.12-2.86-.55-1.65-.47-.95-1.35.32zm.56 2.82-.09-2.69c.73-1.73.47 2.05.09 2.69z" filter="url(#E)" style="-inkscape-stroke:none" transform="matrix(1.12953 0 0 1 917.94 25.83)"/>
 </g>
 <g color="#000">
  <path fill-rule="evenodd" stroke="#fff" stroke-linecap="square" stroke-width=".5" d="M-4.71-507.63c1.05-4.92 24.21-5.9 57.15-2.46-1.33-2.5 12.36-2.67 23.5-1.3 14.4.14 24.33-1.52 21.98-4.35 10.68 1.63 17.87 2.8 35.39 5.65-.37 3.46-13.9 5.12-39.58 3.1 1.13 2.3-11.25 2.65-25.67.95-19.98-.8-38.08-.77-34.46 5.2z" filter="url(#F)" transform="translate(21.9 519.63)"/>
  <path fill="url(#G)" fill-rule="evenodd" stroke="#7c20b4" stroke-linecap="square" stroke-width=".25" d="M57.84-506.65c-5.76.33-25.07-4.29-17.67-4.15 5.23.1 10.27.94 15.22 2.25l-6-.37-3.37-.84-1.97-.1 8.32 2.16 1.89.05-2.71-.67 6.2.33c2.06.67 3.54 1.23.1 1.34zm-11.69-.24-18.88-4.39 5.45.15 17.53 4.12zm-4.44.35c-5.83.64-30.72-4.97-23.63-4.95 4.12.01 9.96.69 15.59 2l-4.48.13-4.16-.93-2.07.06 13.43 2.82 1.8-.12-2.3-.52-1.35.1-3.33-.77 5.15-.26c6.88 1.64 8.6 2.17 5.35 2.44zm-30.69-4.53-4.4.52 25.23 5.68 1.9-.63-8.63-1.8 1-.1 8.96 1.72 2.19-.47zm5.9 1.81 5.86 1.14-1.15.17-5.44-1.21zm13.73 7.29-31.7-5.7.96-1.04 13.15 1.95-13.12-2.97 2.4-.65 29.69 5.82-.7.67-16.15-3.06 9.12 2.12-.28.42-10.07-1.48 16.83 3.06z" filter="url(#H)" transform="translate(21.9 519.63)"/>
  <path fill="url(#I)" fill-rule="evenodd" stroke="#7c20b4" stroke-linecap="square" stroke-width=".25" d="m130.04-508.3-29.7-5.17.07-.75 24.07 4.04.39-.86 6.81 1.2zm-6.37 1.08-25.6-4.85 1.37-.53 21.24 3.84 2.36-.56 6.06 1.1zm-34.27-3.81c-3.12-.35-8.6-.06-8.6-.06l3.67.9.84-.04 13.3 3.18s6.78.35 9.23.22c1.9-.39-5.25-1.93-10.3-2.25.87-.21-.2-1.15-8.14-1.95zm-1.53.68 1.58-.06 4.36.98-2.1-.02zm9.7 1.7 4.17.93-2.4-.03-3.98-.92zm-.76-3-3.63.38 18.57 4.51 4.69-.08-6.66-1.36 1.1-.11 7.86 1.5 3.93-.23zm5.74 1.67 4.92 1-.92.09-4.63-1.02z" filter="url(#J)" transform="translate(21.9 519.63)"/>
  <path fill-rule="evenodd" stroke="#fff" stroke-linecap="square" stroke-width=".5" d="M56.92-509.27c-4.66-1.73 5.29-3.27 20.32-1.5 9.88 1.16 17.75 4.3 8.75 5.04-6.52.54-21.64-.8-29.07-3.54z" filter="url(#K)" transform="translate(21.9 519.63)"/>
  <path fill="#fff" fill-rule="evenodd" d="M85.48 10.63c-2.79-1.04 3.18-1.96 12.2-.9 5.93.7 10.65 2.58 5.25 3.03-3.91.32-12.99-.48-17.45-2.13z"/>
  <path d="M66.1-509.44c-.06.7-.04.43 11.65 2.42.66-.77-.87-.6-4.76-1.3l1.22-.26c2.4.13 4.8.53 6.82.85l.08-.5c-2.27-.45-4.44-.7-6.85-.84-1.82-1-5.26-1.17-8.16-.37zm5.66.88v.04l-4.17-.69c.32-.45 9.37-.02 4.17.65z" style="-inkscape-stroke:none" transform="translate(21.9 519.63)"/>
 </g>
</svg>