<svg xmlns="http://www.w3.org/2000/svg" viewBox="0 0 180 180">
<!--!Font Awesome Free 6.5.2 by @fontawesome - https://fontawesome.com License - https://fontawesome.com/license/free Copyright 2024 Fonticons, Inc.-->
<path d="m 55.895208,61.028132 c 0.34396,2.03729 2.116673,3.57187 4.233343,3.57187 h 4.36562 c 2.59292,0 4.65667,-2.24896 4.31271,-4.7625 -1.00542,-7.46125 -4.33917,-14.34041 -9.68375,-19.76437 -3.810003,-3.88938 -6.244173,-8.81063 -6.985003,-14.155211 -0.29104,-2.090209 -2.09021,-3.65125 -4.25979,-3.65125 h -4.33917 c -2.59292,0 -4.60375,2.248958 -4.31271,4.762501 1.03188,8.44021 4.7625,16.21896 10.74209,22.33083 3.175,3.22792 5.21229,7.27604 5.92666,11.66813 z m 29.633343,0 c 0.34395,2.03729 2.11666,3.57187 4.23333,3.57187 h 4.36562 c 2.59292,0 4.656672,-2.24896 4.312714,-4.7625 -1.005414,-7.46125 -4.339164,-14.34041 -9.683754,-19.76437 -3.81,-3.88938 -6.24416,-8.81063 -6.985,-14.155211 -0.29104,-2.090209 -2.09021,-3.65125 -4.25979,-3.65125 h -4.33917 c -2.59291,0 -4.6302,2.248958 -4.3127,4.762501 1.03187,8.44021 4.7625,16.21896 10.74208,22.33083 3.175,3.22792 5.21229,7.27604 5.92667,11.66813 z M 128.1,73.06667 H 30.733338 c -4.68313,0 -8.46667,3.78354 -8.46667,8.46667 v 50.8 c 0,14.02291 11.37708,25.4 25.4,25.4 h 50.800005 c 14.022917,0 25.399997,-11.37709 25.399997,-25.4 H 128.1 c 16.35125,0 29.63334,-13.28209 29.63334,-29.63334 0,-16.35125 -13.28209,-29.63333 -29.63334,-29.63333 z m 0,42.33333 h -4.23333 V 90 H 128.1 c 7.01146,0 12.7,5.68854 12.7,12.7 0,7.01146 -5.68854,12.7 -12.7,12.7 z"/>
</svg>
