<?xml version="1.0" encoding="UTF-8" standalone="no"?>
<svg xmlns="http://www.w3.org/2000/svg" viewBox="0 0 1024 256" height="64" width="256">
  <path fill="#fff" d="M852 44v132c0 8 2 16 6 23 3 6 9 10 15 13 13 5 25 4 35 4h13v-52h-14V44Zm65 12v30h-11v49h11v40c0 29 14 42 43 42h25v-53h-13v-29h13V86h-13V56ZM374 44v172h55v-54l31 54h65l-40-68c17-12 24-27 24-47 0-34-22-57-55-57zm79 56c0 6-9 5-24 5V95c15 0 24-1 24 5zm224-16c-61 0-70 52-44 78-13 21-39 24-14 38 19 14 39 18 58 18 56 0 74-47 49-77l-7-6 22-28c-19-13-38-23-64-23Zm56 2v89c6 33 36 48 62 40v1h55V86h-55v76c0 4-7 4-7 0V86Zm-167-2c-32 0-62 12-62 68 0 57 35 66 62 66 26 0 42-12 50-19 12-9 16-6 1-18l-7-6h13v-23c0-43-26-68-57-68ZM172 0C99 0 40 57 40 128c0 70 59 127 132 127s132-57 132-127C304 57 245 0 172 0Z"/>
  <path fill="#000" d="m142 52-23 68 11 4 9-29 23 7 4 6-7 23 9 2 8-26-3-7 8-3 5-19-7-14zm6 13 24 7 3 7-3 10-6 3-24-7zm24-52C106 13 53 64 53 128s53 115 119 115 119-51 119-115S238 13 172 13zm-16 21c35 0 64 28 64 62s-29 62-64 62-64-28-64-62 29-62 64-62zm709 23v120c0 28 21 27 42 27v-26c-6 0-14 0-14-9V57zm65 12v30h-12v24h12v54c0 30 20 28 42 28v-27c-10 0-14 0-14-9v-46h14V99h-14V69zM386 57v147h29v-59h18l34 59h35l-37-61c15-4 30-15 30-42 0-28-17-44-42-44zm52 27c20 0 27 1 27 17 0 21-14 17-50 17V84h23zm239 13c-29 0-45 12-45 34 0 24 13 27 38 30 12 3 28 1 27 11 0 7-14 8-20 8-12-1-25-4-34-11l-18 22c18 12 34 14 52 14 35 0 45-17 46-34 0-18-8-28-28-30-12-3-23-2-34-6-7-3-3-8 1-10 15-4 30-1 43 7l17-21c-13-9-29-14-45-14zm68 2v65c0 27 14 41 38 41 11 0 19-5 25-17v16h29V99h-29v63c0 23-34 22-34 1V99zm-180-2c-33 0-48 19-48 50v12c0 13 4 27 13 35 21 18 56 15 77-4l-19-16c-15 12-43 11-45-11h67v-7c0-35-15-58-45-59zm0 26c9 0 19 7 19 21h-41c0-15 11-21 22-21z"/>
</svg>