<svg xmlns="http://www.w3.org/2000/svg" viewBox="0 0 180 180">
<!--!Font Awesome Free 6.5.2 by @fontawesome - https://fontawesome.com License - https://fontawesome.com/license/free Copyright 2024 Fonticons, Inc.-->
<circle style="fill:#fff" cx="90" cy="90" r="90"/>
<path d="m 90,30.733335 c -42.09521,0 -76.2,34.10479 -76.2,76.199995 0,13.96999 3.78354,27.06687 10.34521,38.31166 1.48167,2.54 4.31271,4.02167 7.24958,4.02167 h 117.21042 c 2.93687,0 5.76791,-1.48167 7.24958,-4.02167 C 162.44292,134.0002 166.2,120.90332 166.2,106.93333 166.2,64.838125 132.09521,30.733335 90,30.733335 Z m 0,16.93333 c 3.88938,0 7.03792,2.67229 8.01688,6.27063 -0.29105,0.60854 -0.68792,1.11125 -0.92605,1.7727 l -2.43416,7.32896 c -1.34938,0.92604 -2.91042,1.5875 -4.65667,1.5875 -4.68312,0 -8.46667,-3.78354 -8.46667,-8.46666 0,-4.68313 3.78355,-8.49313 8.46667,-8.49313 z M 39.2,123.86666 c -4.68312,0 -8.46667,-3.78354 -8.46667,-8.46667 0,-4.68312 3.78355,-8.46666 8.46667,-8.46666 4.68313,0 8.46667,3.78354 8.46667,8.46666 0,4.68313 -3.78354,8.46667 -8.46667,8.46667 z M 51.9,81.533336 c -4.68312,0 -8.46667,-3.78354 -8.46667,-8.46667 0,-4.683121 3.78355,-8.466671 8.46667,-8.466671 4.68313,0 8.46667,3.78355 8.46667,8.466671 0,4.68313 -3.78354,8.46667 -8.46667,8.46667 z m 65.29917,-19.155841 -16.21896,48.683335 c 3.59833,3.09562 5.95312,7.64645 5.95312,12.80583 0,3.09562 -0.89958,5.97958 -2.35479,8.46667 H 75.42146 c -1.45521,-2.51355 -2.35479,-5.37105 -2.35479,-8.46667 0,-8.96937 7.01146,-16.24542 15.84854,-16.8275 l 16.21896,-48.683325 c 1.11125,-3.33375 4.68312,-5.15938 8.04333,-4.02167 3.33375,1.11125 5.13292,4.70958 4.02167,8.04333 z m 3.88937,15.134171 4.10104,-12.329581 c 0.92604,-0.34396 1.87854,-0.58209 2.93688,-0.58209 4.68312,0 8.46666,3.78355 8.46666,8.466671 0,4.68313 -3.78354,8.46667 -8.46666,8.46667 -3.01625,0 -5.52979,-1.66688 -7.03792,-4.02167 z M 140.8,123.86666 c -4.68313,0 -8.46667,-3.78354 -8.46667,-8.46667 0,-4.68312 3.78354,-8.46666 8.46667,-8.46666 4.68312,0 8.46667,3.78354 8.46667,8.46666 0,4.68313 -3.78355,8.46667 -8.46667,8.46667 z"/>
</svg>
