<svg xmlns="http://www.w3.org/2000/svg" viewBox="0 0 180 180">
<!--!Font Awesome Free 6.5.2 by @fontawesome - https://fontawesome.com License - https://fontawesome.com/license/free Copyright 2024 Fonticons, Inc.-->
<circle style="fill:#fff" cx="90" cy="90" r="90"/>
<path d="m 97.72586,28.11267 c -2.09021,-7.61999 -13.07042,-7.96395 -15.45167,0 -12.3825,41.75125 -38.84083,53.07541 -38.84083,82.49708 0,26.06146 20.82271,47.1223 46.56667,47.1223 25.74395,0 46.56666,-21.0873 46.56666,-47.1223 0,-29.58042 -26.40541,-40.56063 -38.84083,-82.49708 z m -7.72583,112.68604 c -16.35125,0 -29.63334,-13.30854 -29.63334,-29.63334 0,-2.32833 1.905,-4.23333 4.23334,-4.23333 2.32833,0 4.23333,1.905 4.23333,4.23333 0,11.66813 9.49854,21.16668 21.16667,21.16668 2.32833,0 4.23333,1.905 4.23333,4.23333 0,2.32833 -1.905,4.23333 -4.23333,4.23333 z"/>
</svg>
